<svg width="77" height="78" viewBox="0 0 77 78" fill="none" xmlns="http://www.w3.org/2000/svg">
<path d="M16.7934 36.5896L3.5 74.0209L40.9313 60.7626M10.4965 7.55416H10.5315H10.4965ZM73.465 25.0454H73.5H73.465ZM48.9773 4.05591H49.0122H48.9773ZM73.465 67.0244H73.5H73.465ZM73.465 4.05591L65.6289 6.6796C63.3984 7.42258 61.4951 8.91722 60.2445 10.908C58.9939 12.8988 58.4735 15.2622 58.7724 17.5941C59.1222 20.6026 56.7784 23.2963 53.6999 23.2963H52.3706C49.3621 23.2963 46.7734 25.3952 46.2136 28.3338L45.479 32.0419M73.465 42.5367L70.5965 41.3822C67.588 40.1928 64.2296 42.0819 63.6699 45.2653C63.2851 47.7141 61.1512 49.5332 58.6674 49.5332H55.9738M34.9843 4.05591L36.1387 6.92447C37.3281 9.93297 35.439 13.2913 32.2556 13.851C29.8068 14.2008 27.9878 16.3698 27.9878 18.8535V21.5472" fill="#C0BFBD"/>
<path d="M16.7934 36.5896L3.5 74.0209L40.9313 60.7626M10.4965 7.55416H10.5315M73.465 25.0454H73.5M48.9773 4.05591H49.0122M73.465 67.0244H73.5M73.465 4.05591L65.6289 6.6796C63.3984 7.42258 61.4951 8.91722 60.2445 10.908C58.9939 12.8988 58.4735 15.2622 58.7724 17.5941C59.1222 20.6026 56.7784 23.2963 53.6999 23.2963H52.3706C49.3621 23.2963 46.7734 25.3952 46.2136 28.3338L45.479 32.0419M73.465 42.5367L70.5964 41.3822C67.588 40.1928 64.2296 42.0819 63.6699 45.2653C63.2851 47.7141 61.1512 49.5332 58.6674 49.5332H55.9738M34.9843 4.05591L36.1387 6.92447C37.3281 9.93297 35.439 13.2913 32.2556 13.851C29.8068 14.2008 27.9878 16.3698 27.9878 18.8535V21.5472" stroke="#C0BFBD" stroke-width="7" stroke-linecap="round" stroke-linejoin="round"/>
<path d="M34.9843 42.5365C41.7359 49.2882 44.8844 57.1243 41.9808 60.0278C39.0773 62.9314 31.2412 59.7829 24.4896 53.0313C17.7379 46.2797 14.5895 38.4436 17.4931 35.54C20.3966 32.6365 28.2327 35.7849 34.9843 42.5365Z" fill="#C0BFBD" stroke="#C0BFBD" stroke-width="7" stroke-linecap="round" stroke-linejoin="round"/>
</svg>
