<svg width="71" height="79" viewBox="0 0 71 79" fill="none" xmlns="http://www.w3.org/2000/svg">
<path d="M35.3145 1.62793H35.6855C42.7794 1.62793 48.2743 1.63191 52.5967 2.18262L53.4453 2.2998H53.4463C57.9359 2.97216 61.234 4.33493 63.8047 7.20215V7.20117C66.2342 9.91408 67.4897 13.3851 68.1426 18.0049L68.2656 18.9443C68.8698 23.9521 68.8721 30.4068 68.8721 38.8311V39.2451C68.8721 47.1433 68.8702 53.3105 68.3721 58.1738L68.2656 59.1289C67.6521 64.226 66.3989 67.9811 63.8057 70.874C61.3949 73.5599 58.3443 74.9282 54.2764 75.6426L53.4492 75.7773H53.4482C48.9992 76.445 43.2517 76.4492 35.6855 76.4492H35.3145C28.2206 76.4492 22.7257 76.4452 18.4033 75.8945L17.5547 75.7773H17.5537C13.2045 75.126 9.97331 73.8268 7.43848 71.1396L7.19531 70.875C4.76601 68.1622 3.51031 64.6918 2.85742 60.0723L2.73438 59.1328C2.13023 54.125 2.12793 47.6696 2.12793 39.2451V38.8311C2.12793 30.9331 2.12984 24.7665 2.62793 19.9033L2.73438 18.9482V18.9473C3.34796 13.8498 4.60164 10.0951 7.19531 7.20215L7.19434 7.20117C9.60495 4.51588 12.6562 3.14888 16.7236 2.43457L17.5508 2.2998H17.5518C21.4447 1.71557 26.3318 1.63884 32.5615 1.62891L35.3145 1.62793ZM3.75586 41.7637C3.76194 48.5297 3.81194 53.7758 4.24805 57.9678L4.34082 58.793C4.9011 63.4396 5.98302 66.5715 8.02344 68.9678L8.22461 69.1982L8.22559 69.2002C10.2859 71.4942 12.98 72.7769 16.918 73.4697L17.7227 73.6006H17.7236C21.6378 74.1844 26.5923 74.2506 33.0566 74.2578L34.6865 74.2598V46.752L31.5723 46.0859C30.4753 48.5334 28.8353 50.5938 26.835 52.082L26.4307 52.3721C24.3851 53.7818 22.0634 54.5603 19.6953 54.6514L19.2217 54.6602H19.2207C19.0851 54.6601 18.9227 54.6086 18.7705 54.4688L18.7061 54.4033C18.5311 54.2081 18.4072 53.9088 18.4072 53.5645C18.4072 53.2628 18.5023 52.9956 18.6436 52.8027L18.7061 52.7256C18.8333 52.5837 18.972 52.5102 19.0986 52.4824L19.2207 52.4688C21.8439 52.4694 24.3726 51.5428 26.4512 49.8643L26.8613 49.5186C28.8747 47.7435 30.3054 45.3301 30.9854 42.6416L31.1113 42.1006L31.5293 40.1338H3.75391L3.75586 41.7637ZM39.8887 42.1006C40.4678 44.8241 41.8092 47.2968 43.7441 49.1553L44.1387 49.5186C46.1556 51.2966 48.6468 52.3338 51.2559 52.4561L51.7793 52.4688C51.9342 52.4688 52.1242 52.5362 52.2939 52.7256C52.4688 52.9209 52.5928 53.2202 52.5928 53.5645C52.5928 53.9088 52.4689 54.2081 52.2939 54.4033C52.1667 54.5452 52.028 54.6187 51.9014 54.6465L51.7793 54.6602H51.7783C49.4052 54.6609 47.0636 53.9707 44.9824 52.6455L44.5693 52.3721C42.3854 50.8669 40.5978 48.6965 39.4277 46.0859L36.3135 46.752V74.2598L37.9434 74.2578C44.0023 74.251 48.7369 74.1963 52.5312 73.7051L53.2773 73.6006C57.5221 72.9639 60.3961 71.7233 62.5693 69.4219L62.7773 69.1963L62.7793 69.1943C64.8147 66.92 65.9353 63.9831 66.5439 59.6729L66.6592 58.793V58.791C67.1774 54.4684 67.2376 48.982 67.2441 41.7637L67.2461 40.1338H39.4707L39.8887 42.1006ZM33.0566 3.81934C26.9977 3.82611 22.2631 3.88085 18.4688 4.37207L17.7227 4.47656C13.4782 5.11323 10.6039 6.35311 8.43066 8.6543L8.22266 8.88086L8.2207 8.88281C6.18527 11.1572 5.06374 14.0939 4.45508 18.4043L4.34082 19.2842V19.2852C3.82252 23.6079 3.76235 29.0949 3.75586 36.3135L3.75391 37.9424H22.1104L20.2637 35.3662C19.2923 34.0107 18.5708 32.4419 18.1484 30.7529L18.0684 30.4131L18.002 30.0957C17.3714 26.8269 18.3683 23.7688 20.208 21.7168C22.0397 19.6737 24.6525 18.6658 27.3838 19.3223L27.6484 19.3916H27.6494C29.2151 19.8284 30.6916 20.6403 31.9746 21.7842L34.6865 24.2012V3.81738L33.0566 3.81934ZM46.9678 21.5859C45.9573 21.2736 44.8908 21.24 43.8662 21.4863L43.6621 21.5391L43.6592 21.54C41.6515 22.1026 39.8875 23.34 38.5908 25.0381L38.3379 25.3828C37.106 27.1391 36.4107 29.2586 36.3232 31.4424L36.3135 31.8799V37.9424H41.9277C44.0075 37.9333 46.0075 37.1997 47.6533 35.8818L47.9775 35.6104C49.5716 34.2182 50.7101 32.3307 51.2676 30.2285L51.3711 29.8057L51.3721 29.8037C51.5919 28.8217 51.6087 27.8 51.4238 26.8125L51.333 26.3916C51.0904 25.4151 50.6494 24.5013 50.0352 23.7217L49.7617 23.3965C49.0977 22.6558 48.2802 22.0798 47.3652 21.7246L46.9678 21.5859ZM36.3135 24.2002L39.0254 21.7842C40.229 20.7114 41.6026 19.9305 43.0605 19.4775L43.3535 19.3916H43.3545C46.1791 18.6025 48.9009 19.6078 50.792 21.7168C52.6912 23.8351 53.6942 27.0257 52.9355 30.4131C52.5269 32.2317 51.7736 33.9206 50.7363 35.3662L48.8877 37.9424H67.2461L67.2441 36.3135C67.2381 29.5458 67.1856 24.3004 66.752 20.1094L66.6592 19.2852V19.2842L66.5439 18.4043C65.9555 14.2375 64.8887 11.3543 62.9795 9.1123L62.7793 8.88281L62.7773 8.88086L62.5693 8.6543C60.5364 6.50159 57.8898 5.27766 54.082 4.60742L53.2773 4.47656C49.3619 3.88876 44.4061 3.82657 37.9434 3.81934L36.3135 3.81738V24.2002ZM34.6855 31.8672C34.6771 29.678 34.0577 27.5343 32.8975 25.7334L32.6582 25.3779C31.4249 23.6221 29.7106 22.3119 27.7383 21.6611L27.3408 21.54L27.3379 21.5391L27.1338 21.4863C26.1774 21.2564 25.185 21.2704 24.2354 21.5273L24.0322 21.5859C23.0909 21.877 22.2388 22.3967 21.5322 23.0889L21.2383 23.3965C20.575 24.1363 20.0818 25.0204 19.7832 25.9775L19.667 26.3916C19.4245 27.3676 19.384 28.3883 19.5459 29.3799L19.6279 29.8037L19.6289 29.8057C20.1084 31.9349 21.1766 33.8683 22.709 35.3252L23.0225 35.6104C24.6198 37.0054 26.5894 37.8265 28.6572 37.9316L29.0723 37.9424H34.6865V31.874L34.6855 31.8672Z" fill="#C0BFBD" stroke="#C0BFBD" stroke-width="3.25581"/>
</svg>
