<svg width="70" height="78" viewBox="0 0 70 78" fill="none" xmlns="http://www.w3.org/2000/svg">
<path d="M47.5645 34.5513C58.9575 34.5515 68.2048 43.7989 68.2051 55.1919C68.2051 66.5851 58.9576 75.8333 47.5645 75.8335C43.2642 75.8335 39.3063 74.5455 36.0088 72.3032L35 71.6167L33.9912 72.3032C30.6937 74.5455 26.7358 75.8335 22.4355 75.8335C11.0424 75.8333 1.79492 66.5851 1.79492 55.1919C1.79515 43.7989 11.0425 34.5515 22.4355 34.5513C26.7358 34.5513 30.6937 35.8393 33.9912 38.0815L35 38.7681L36.0088 38.0815C39.3063 35.8393 43.2642 34.5513 47.5645 34.5513ZM22.4355 36.3462C12.0394 36.3464 3.59008 44.7958 3.58984 55.1919C3.58984 65.5882 12.0393 74.0384 22.4355 74.0386C25.7634 74.0386 28.9436 73.1672 31.6572 71.6108L33.5752 70.5112L32.1045 68.8599C28.8593 65.216 27.0269 60.5366 26.9277 55.6685L26.9229 55.1968V55.1919C26.923 49.937 28.8712 45.1541 32.1045 41.5249L33.5752 39.8735L31.6572 38.7739C28.9436 37.2176 25.7634 36.3462 22.4355 36.3462ZM47.5645 36.3462C44.2366 36.3462 41.0564 37.2176 38.3428 38.7739L36.4248 39.8735L37.8955 41.5249C41.1288 45.1541 43.077 49.937 43.0771 55.1919C43.0771 60.447 41.1289 65.2306 37.8955 68.8599L36.4248 70.5112L38.3428 71.6108C41.0564 73.1672 44.2366 74.0386 47.5645 74.0386C57.9607 74.0384 66.4102 65.5882 66.4102 55.1919C66.4099 44.7958 57.9606 36.3464 47.5645 36.3462ZM33.6846 42.4478C30.5819 45.7891 28.7179 50.2797 28.7178 55.1919C28.7178 60.1043 30.5818 64.5956 33.6846 67.937L35 69.353L36.3154 67.937C39.4182 64.5956 41.2822 60.1043 41.2822 55.1919C41.2821 50.2797 39.4181 45.7891 36.3154 42.4478L35 41.0317L33.6846 42.4478ZM42.1797 2.24365C46.885 2.24376 50.2567 6.16003 50.2568 10.8228C50.2568 16.6101 46.4005 21.213 42.751 24.272C40.688 25.9974 38.4465 27.4973 36.0645 28.7456C35.9945 28.7806 35.9295 28.8149 35.8809 28.8403C35.8426 28.8603 35.8151 28.8739 35.793 28.8853L35.541 28.9487L35.335 29.1021C35.1045 29.1807 34.847 29.1651 34.6543 29.0688L34.2754 28.8794H34.1943C34.1746 28.8692 34.1505 28.8567 34.1191 28.8403L33.9355 28.7456C31.8524 27.654 29.8769 26.3696 28.0342 24.9106L27.249 24.272C23.5995 21.213 19.7432 16.6101 19.7432 10.8228C19.7433 6.16003 23.115 2.24376 27.8203 2.24365C29.6506 2.24365 31.2158 2.64065 32.6143 3.47998C33.0157 3.74002 33.4299 4.06464 33.7871 4.39209L35 5.50439L36.2129 4.39209C36.5699 4.06483 36.9836 3.73994 37.3848 3.47998C38.7834 2.64035 40.3491 2.24365 42.1797 2.24365ZM42.1797 4.03857C40.5986 4.03857 39.3861 4.39627 38.4082 4.9624L38.3789 4.979L38.3496 4.99756C37.4522 5.56434 36.694 6.40305 36.0625 7.51611L35.8125 7.98486C35.6493 8.29863 35.3237 8.48975 35 8.48975C34.6763 8.48975 34.3507 8.29863 34.1875 7.98486H34.1865C33.5079 6.63615 32.6695 5.64123 31.6504 4.99756L31.6211 4.979L31.5918 4.9624L31.2139 4.76025C30.3051 4.31248 29.2039 4.03857 27.8203 4.03857C24.2736 4.03868 21.5382 6.97087 21.5381 10.8228C21.5381 15.4866 24.4511 19.4304 27.7354 22.3335L28.3955 22.9009L28.3994 22.9038C29.9165 24.1588 31.5303 25.2924 33.2246 26.2954L33.2451 26.3081L33.2666 26.3198C33.6252 26.519 33.7287 26.5945 34.1094 26.812L35 27.3208L35.8906 26.812C36.2713 26.5945 36.3748 26.519 36.7334 26.3198L36.7598 26.3062L36.7852 26.2905C38.0738 25.5173 39.849 24.3856 41.6035 22.8999L41.6045 22.9009C45.1485 19.9537 48.4619 15.7974 48.4619 10.8228C48.4618 6.97087 45.7264 4.03868 42.1797 4.03857Z" fill="#C0BFBD" stroke="#C0BFBD" stroke-width="3.58974"/>
</svg>
